<?xml version="1.0" standalone="no"?><!DOCTYPE svg PUBLIC "-//W3C//DTD SVG 1.1//EN" "http://www.w3.org/Graphics/SVG/1.1/DTD/svg11.dtd"><svg t="1683545459830" class="icon" viewBox="0 0 1024 1024" version="1.1" xmlns="http://www.w3.org/2000/svg" p-id="1657" xmlns:xlink="http://www.w3.org/1999/xlink" width="25" height="25"><path d="M170.666667 85.333333m85.333333 0l512 0q85.333333 0 85.333333 85.333334l0 597.333333q0 85.333333-85.333333 85.333333l-512 0q-85.333333 0-85.333333-85.333333l0-597.333333q0-85.333333 85.333333-85.333334Z" fill="#DBDDE1" p-id="1658"></path><path d="M320 641.664h533.333333v213.333333a85.333333 85.333333 0 0 1-85.333333 85.333334H320a149.333333 149.333333 0 0 1 0-298.666667z" fill="#3F495C" p-id="1659"></path><path d="M351.36 330.666667c-16.448 0-30.101333-14.506667-30.101333-32s13.653333-32 30.122666-32h321.237334c16.469333 0 30.122667 14.506667 30.122666 32s-13.653333 32-30.122666 32H351.381333zM351.36 480c-16.448 0-30.101333-14.506667-30.101333-32s13.653333-32 30.122666-32h200.768c16.469333 0 30.122667 14.506667 30.122667 32s-13.653333 32-30.122667 32H351.381333z" fill="#3F495C" p-id="1660"></path></svg>