<?xml version="1.0" standalone="no"?><!DOCTYPE svg PUBLIC "-//W3C//DTD SVG 1.1//EN" "http://www.w3.org/Graphics/SVG/1.1/DTD/svg11.dtd"><svg t="1684033631626" class="icon" viewBox="0 0 1024 1024" version="1.1" xmlns="http://www.w3.org/2000/svg" p-id="2587" xmlns:xlink="http://www.w3.org/1999/xlink" width="25" height="25"><path d="M686.933333 558.933333l-59.733333 59.733334h-93.866667v51.2h256v-51.2h-89.6l25.6-25.6c17.066667-17.066667 25.6-38.4 25.6-59.733334V418.133333L853.333333 315.733333l29.866667 29.866667 12.8-17.066667c8.533333-8.533333 8.533333-21.333333 0-29.866666l-149.333333-149.333334c-8.533333-8.533333-21.333333-8.533333-29.866667 0l-17.066667 17.066667 29.866667 29.866667L627.2 298.666667H512c-21.333333 0-42.666667 8.533333-59.733333 25.6l-290.133334 290.133333-4.266666 4.266667H85.333333v51.2h320v-51.2H226.133333l260.266667-260.266667c8.533333-8.533333 17.066667-8.533333 25.6-8.533333h136.533333l115.2-115.2L810.666667 281.6l-115.2 115.2v136.533333c0 8.533333-4.266667 21.333333-8.533334 25.6zM256 725.333333h85.333333v51.2H256zM448 725.333333h170.666667v51.2h-170.666667zM576 832H768v51.2h-192z" fill-opacity=".9" p-id="2588"></path></svg>