<?xml version="1.0" standalone="no"?><!DOCTYPE svg PUBLIC "-//W3C//DTD SVG 1.1//EN" "http://www.w3.org/Graphics/SVG/1.1/DTD/svg11.dtd"><svg t="1683536017143" class="icon" viewBox="0 0 1152 1024" version="1.1" xmlns="http://www.w3.org/2000/svg" p-id="16325" xmlns:xlink="http://www.w3.org/1999/xlink" width="25" height="25"><path d="M1024 160c17.6 0 32 14.4 32 32v640c0 17.6-14.4 32-32 32H128c-17.6 0-32-14.4-32-32V192c0-17.6 14.4-32 32-32h896zM128 64C57.4 64 0 121.4 0 192v640c0 70.6 57.4 128 128 128h896c70.6 0 128-57.4 128-128V192c0-70.6-57.4-128-128-128H128z m288 448a128 128 0 1 0 0-256 128 128 0 1 0 0 256z m-64 64c-88.4 0-160 71.6-160 160 0 17.6 14.4 32 32 32h384c17.6 0 32-14.4 32-32 0-88.4-71.6-160-160-160h-128z m400-288c-26.6 0-48 21.4-48 48s21.4 48 48 48h160c26.6 0 48-21.4 48-48s-21.4-48-48-48h-160z m0 192c-26.6 0-48 21.4-48 48s21.4 48 48 48h160c26.6 0 48-21.4 48-48s-21.4-48-48-48h-160z" p-id="16326"></path></svg>