<?xml version="1.0" standalone="no"?><!DOCTYPE svg PUBLIC "-//W3C//DTD SVG 1.1//EN" "http://www.w3.org/Graphics/SVG/1.1/DTD/svg11.dtd"><svg t="1683533532190" class="icon" viewBox="0 0 1024 1024" version="1.1" xmlns="http://www.w3.org/2000/svg" p-id="1893" xmlns:xlink="http://www.w3.org/1999/xlink" width="25" height="25"><path d="M149.333333 405.333333L512 170.666667l362.666667 234.666666v405.333334a106.666667 106.666667 0 0 1-106.666667 106.666666H256a106.666667 106.666667 0 0 1-106.666667-106.666666V405.333333z" fill="#DBDDE1" p-id="1894"></path><path d="M512 533.333333c80.853333 0 146.709333 62.933333 149.248 141.546667l0.085333 4.736V917.333333H362.666667V679.616C362.666667 598.826667 429.525333 533.333333 512 533.333333zM493.952 112.106667a32.256 32.256 0 0 1 33.066667-1.664l2.773333 1.664 416.874667 281.109333a29.44 29.44 0 0 1 7.68 41.941333c-9.301333 12.8-27.114667 16.512-40.96 8.96l-2.56-1.557333-398.976-269.013333L113.173333 442.368c-13.312 8.96-31.36 6.549333-41.685333-5.12l-1.834667-2.304a29.354667 29.354667 0 0 1 5.290667-40.170667l2.389333-1.770666L493.952 112.106667z" fill="#3F495C" p-id="1895" data-spm-anchor-id="a313x.7781069.0.i1" class="selected"></path></svg>