<?xml version="1.0" standalone="no"?><!DOCTYPE svg PUBLIC "-//W3C//DTD SVG 1.1//EN" "http://www.w3.org/Graphics/SVG/1.1/DTD/svg11.dtd"><svg t="1683545341274" class="icon" viewBox="0 0 1024 1024" version="1.1" xmlns="http://www.w3.org/2000/svg" p-id="1511" xmlns:xlink="http://www.w3.org/1999/xlink" width="25" height="25"><path d="M128 192m85.333333 0l597.333334 0q85.333333 0 85.333333 85.333333l0 554.666667q0 85.333333-85.333333 85.333333l-597.333334 0q-85.333333 0-85.333333-85.333333l0-554.666667q0-85.333333 85.333333-85.333333Z" fill="#DBDDE1" p-id="1512"></path><path d="M682.666667 501.333333a32 32 0 0 1 3.072 63.850667L682.666667 565.333333H341.333333a32 32 0 0 1-3.072-63.850666L341.333333 501.333333h341.333334zM512 714.666667a32 32 0 0 1 3.072 63.850666L512 778.666667h-170.666667a32 32 0 0 1-3.072-63.850667L341.333333 714.666667h170.666667z" fill="#3F495C" p-id="1513"></path></svg>